<?xml version="1.0" standalone="no"?>
<!DOCTYPE svg PUBLIC "-//W3C//DTD SVG 20010904//EN"
 "http://www.w3.org/TR/2001/REC-SVG-20010904/DTD/svg10.dtd">
<svg version="1.0" xmlns="http://www.w3.org/2000/svg"
 width="512.000000pt" height="512.000000pt" viewBox="0 0 512.000000 512.000000"
 preserveAspectRatio="xMidYMid meet">

<g transform="translate(0.000000,512.000000) scale(0.100000,-0.100000)"
fill="#000000" stroke="none">
<path d="M980 4921 c-84 -27 -125 -70 -159 -166 -11 -33 -158 -485 -327 -1005
-168 -520 -347 -1069 -397 -1220 -80 -245 -91 -283 -91 -350 -1 -62 4 -84 26
-130 15 -30 42 -69 60 -86 50 -47 2403 -1753 2434 -1764 15 -6 40 -8 56 -4 16
3 185 119 376 258 191 139 727 528 1192 866 465 337 860 627 878 644 18 17 45
56 60 86 22 46 27 68 26 130 0 71 -23 145 -402 1310 -221 679 -410 1255 -418
1280 -37 101 -107 154 -204 154 -84 -1 -147 -38 -183 -109 -8 -16 -128 -379
-266 -805 -138 -426 -256 -785 -261 -798 l-10 -22 -812 2 -812 3 -132 405
c-73 223 -191 585 -263 806 -72 221 -141 416 -154 435 -41 61 -151 101 -217
80z m284 -999 c126 -389 231 -713 234 -719 3 -10 -95 -13 -468 -13 -373 0
-471 3 -468 13 3 6 108 330 234 720 125 389 231 707 234 707 3 0 108 -319 234
-708z m3061 1 c126 -390 231 -714 233 -720 3 -10 -93 -13 -461 -13 -256 0
-468 3 -470 8 -5 8 455 1432 463 1432 3 0 109 -318 235 -707z m-2745 -967 c0
-3 149 -463 330 -1022 182 -559 329 -1018 328 -1019 -2 -1 -336 425 -743 947
-407 522 -766 983 -798 1024 l-58 74 470 0 c259 0 471 -2 471 -4z m1717 -3
c-2 -5 -168 -513 -368 -1130 -200 -618 -366 -1123 -369 -1123 -4 0 -355 1073
-676 2068 l-62 192 740 0 c406 0 737 -3 735 -7z m1135 -55 c-27 -35 -388 -497
-802 -1028 -415 -531 -751 -958 -749 -950 3 8 153 471 334 1028 l329 1012 469
0 469 0 -50 -62z m-3237 -1028 c400 -514 735 -944 744 -954 14 -17 14 -18 0
-10 -71 41 -1693 1232 -1701 1249 -15 33 197 684 216 664 7 -8 341 -435 741
-949z m3596 618 c97 -298 102 -317 87 -340 -12 -18 -1631 -1203 -1696 -1242
-9 -5 9 22 39 61 926 1190 1455 1861 1460 1850 4 -6 53 -154 110 -329z"/>
</g>
</svg>
